<svg version="1.1" id="Layer_1" xmlns="http://www.w3.org/2000/svg" xmlns:xlink="http://www.w3.org/1999/xlink" x="0px" y="0px"
	 width="100%" viewBox="0 0 340 255" enable-background="new 0 0 340 255" xml:space="preserve">
<path fill="#ED6630" opacity="1.000000" stroke="none" 
	d="
M1.000000,85.000000 
	C1.000000,56.666672 1.000000,28.833344 1.000000,1.000011 
	C114.333313,1.000007 227.666626,1.000007 340.999939,1.000004 
	C340.999969,85.999962 340.999969,170.999924 341.000000,255.999908 
	C227.666733,255.999939 114.333458,255.999939 1.000091,255.999969 
	C1.000000,199.166672 1.000000,142.333328 1.000000,85.000000 
M8.451553,12.370440 
	C7.954054,14.357268 7.033266,16.342117 7.023966,18.331228 
	C6.921124,40.327133 6.960027,62.323696 6.960037,84.320084 
	C6.960059,135.978256 6.935698,187.636490 7.040981,239.294449 
	C7.045557,241.539368 8.240195,243.781876 9.475568,246.553665 
	C12.171382,247.144577 14.866753,248.249802 17.563076,248.252136 
	C119.717041,248.340256 221.871094,248.327072 324.025146,248.326675 
	C325.358276,248.326675 326.694000,248.260803 328.024017,248.322449 
	C332.587982,248.533997 334.039276,246.239609 334.034332,241.873749 
	C333.950256,167.383148 333.964691,92.892410 333.944397,18.401716 
	C333.942291,10.693327 332.683807,9.457354 324.887573,9.461114 
	C243.064926,9.500575 161.242279,9.566011 79.419632,9.571815 
	C72.279640,9.572321 65.139626,9.200508 58.697159,8.557749 
	C61.004417,8.374093 63.311623,8.030618 65.618942,8.029861 
	C151.255768,8.001814 236.892609,8.005459 322.529449,8.004800 
	C324.357635,8.004786 326.185822,8.004798 328.014008,8.004798 
	C328.000153,7.749809 327.986298,7.494820 327.972473,7.239831 
	C223.271667,7.239831 118.570869,7.239831 13.870069,7.239831 
	C24.811502,8.005537 35.760597,7.953896 46.708374,8.050654 
	C48.808624,8.069216 50.903709,8.671268 52.248501,9.317847 
	C40.643925,9.365770 29.034887,9.253989 17.438021,9.577895 
	C14.662008,9.655431 11.926514,11.183583 8.451553,12.370440 
z"/>
<path fill="#FFFDFC" opacity="1.000000" stroke="none" 
	d="
M57.999619,9.001635 
	C65.139626,9.200508 72.279640,9.572321 79.419632,9.571815 
	C161.242279,9.566011 243.064926,9.500575 324.887573,9.461114 
	C332.683807,9.457354 333.942291,10.693327 333.944397,18.401716 
	C333.964691,92.892410 333.950256,167.383148 334.034332,241.873749 
	C334.039276,246.239609 332.587982,248.533997 328.024017,248.322449 
	C326.694000,248.260803 325.358276,248.326675 324.025146,248.326675 
	C221.871094,248.327072 119.717041,248.340256 17.563076,248.252136 
	C14.866753,248.249802 12.171382,247.144577 9.223098,245.821198 
	C8.975953,169.400833 8.979860,93.712936 8.994366,18.025042 
	C8.994747,16.031540 9.110457,14.038057 9.172384,12.044566 
	C11.926514,11.183583 14.662008,9.655431 17.438021,9.577895 
	C29.034887,9.253989 40.643925,9.365770 53.036030,9.243729 
	C55.215580,9.113618 56.607597,9.057627 57.999619,9.001635 
M100.966164,68.042480 
	C100.966164,68.042480 100.898407,68.046165 100.709770,67.325073 
	C99.717857,64.916542 98.725945,62.508011 97.865334,59.401260 
	C97.788963,58.937832 97.712601,58.474403 97.866608,57.238636 
	C96.553589,52.835297 95.240578,48.431957 94.000206,43.336288 
	C93.868423,42.895313 93.736649,42.454334 93.756760,41.203053 
	C93.598351,40.134651 93.439949,39.066254 93.502556,37.331192 
	C93.358910,36.891651 93.215271,36.452106 93.285469,35.350910 
	C93.238754,34.896248 93.192039,34.441589 93.364540,33.153008 
	C94.141411,30.570662 95.728653,27.715046 90.931946,26.615704 
	C90.252136,26.730118 89.572319,26.844532 88.240997,27.093704 
	C87.646843,28.434690 87.052689,29.775675 85.991669,31.734032 
	C85.524261,34.825737 85.056854,37.917439 84.299232,41.650593 
	C84.402351,42.096725 84.505470,42.542858 84.392509,43.849842 
	C85.478615,49.183750 86.564720,54.517658 87.564957,60.531025 
	C90.396965,64.680534 93.228973,68.830040 96.263641,73.847702 
	C95.256302,74.862686 94.248962,75.877663 92.775848,76.236893 
	C92.538559,76.112083 92.301270,75.987267 91.826515,75.246628 
	C89.567009,72.825821 87.307510,70.405022 84.967102,67.254471 
	C84.559013,66.102402 84.150925,64.950333 83.946312,63.114998 
	C82.292160,58.077419 80.638008,53.039841 78.853928,47.240429 
	C77.915146,44.798546 76.976372,42.356659 75.837975,39.153309 
	C75.300232,36.136150 74.762489,33.118992 74.806923,29.917458 
	C75.214859,29.277821 75.622803,28.638184 76.487167,27.404078 
	C76.809784,25.993464 77.132401,24.582851 78.124298,22.692177 
	C78.281654,20.599342 79.024757,17.773352 75.750595,17.993877 
	C74.122528,18.103533 72.416962,19.950554 71.144211,21.368620 
	C70.375923,22.224625 70.370934,23.765692 69.808929,25.682240 
	C69.514542,26.786695 69.220146,27.891151 68.673698,29.645990 
	C68.740784,30.100037 68.807861,30.554083 68.627113,31.684147 
	C68.520760,32.635555 68.414398,33.586964 67.874260,35.137516 
	C67.686340,37.769642 67.498413,40.401768 67.032425,43.829475 
	C67.185944,45.202888 67.339462,46.576298 67.347733,48.569363 
	C67.606079,49.365803 67.864426,50.162243 67.985550,51.736988 
	C68.266777,53.510086 68.547997,55.283184 68.737381,57.831966 
	C71.854004,68.852890 78.123512,77.636162 87.872238,84.817741 
	C88.240395,85.875816 88.608551,86.933899 88.429367,88.404922 
	C80.921005,99.912949 75.382576,112.233505 72.477577,125.738152 
	C66.021912,155.749100 71.101807,183.053558 91.237114,207.613220 
	C91.158852,209.075729 91.080582,210.538254 90.483017,212.278381 
	C90.194153,212.783844 89.905289,213.289307 89.051270,214.193588 
	C88.540283,215.475464 88.029297,216.757324 87.368828,218.027634 
	C87.368828,218.027634 87.337448,218.174240 86.947952,218.549652 
	C86.850777,219.404007 86.753609,220.258377 86.357254,221.696503 
	C86.393936,222.121140 86.430611,222.545776 86.278038,223.785782 
	C86.595428,224.838638 86.912819,225.891510 87.144699,227.522964 
	C87.442993,228.011765 87.741287,228.500580 88.068474,229.705521 
	C91.233620,232.889908 94.398766,236.074295 98.035065,239.834229 
	C102.350998,239.868301 106.666924,239.902359 111.673996,239.890976 
	C114.425507,237.582306 117.554878,235.590408 119.827171,232.879990 
	C122.330513,229.893967 124.751839,229.491699 128.215714,231.883270 
	C129.390839,231.966248 130.565979,232.049240 131.968643,232.814240 
	C134.748093,233.805923 137.456436,235.289780 140.319412,235.703415 
	C152.187103,237.418106 164.101776,238.655228 176.753525,236.006470 
	C177.496109,235.874054 178.238693,235.741638 179.735474,235.723679 
	C182.800491,234.756104 185.865524,233.788528 189.679230,232.876144 
	C191.112900,232.447891 192.546585,232.019638 194.618134,231.610657 
	C195.335938,231.176041 196.053741,230.741409 197.382950,230.361664 
	C198.240631,229.863007 199.098312,229.364349 200.534790,228.859711 
	C201.428452,228.511505 202.322113,228.163300 203.968521,227.724930 
	C205.305817,227.018951 206.643097,226.312973 208.599197,225.598480 
	C209.258987,225.126862 209.918762,224.655228 211.232208,224.088272 
	C228.079178,214.212097 242.710800,201.960876 253.579575,184.778778 
	C254.033997,183.851776 254.488419,182.924789 255.200562,181.882019 
	C255.200562,181.882019 255.193619,181.599564 255.723648,181.228928 
	C256.119324,180.475906 256.515015,179.722885 257.485229,178.574341 
	C258.837494,175.764206 260.189789,172.954086 261.883331,169.675644 
	C262.220001,168.781967 262.556641,167.888290 263.266174,166.725906 
	C263.490448,166.477844 263.565094,166.190872 263.964264,165.345200 
	C264.240723,164.227798 264.517151,163.110382 265.256409,161.505569 
	C265.446625,160.651978 265.636871,159.798401 266.215210,158.439880 
	C266.397491,157.623138 266.579742,156.806396 267.133301,155.538025 
	C267.245392,154.976669 267.357483,154.415329 267.914825,153.311295 
	C268.228882,152.205826 268.542969,151.100342 269.335938,149.378815 
	C269.532684,147.581390 269.729431,145.783951 270.259949,143.514236 
	C270.260712,142.955383 270.261475,142.396545 270.599792,141.168335 
	C270.650055,140.428955 270.700348,139.689590 271.154236,138.425308 
	C271.217316,137.566666 271.280396,136.708023 271.634552,135.066681 
	C271.668182,133.403732 271.701782,131.740799 272.025665,129.258163 
	C271.954315,124.852707 271.882965,120.447258 271.830750,115.360237 
	C271.601715,114.249451 271.372650,113.138672 271.361298,111.412712 
	C270.859589,108.952957 270.357910,106.493202 269.915863,103.243240 
	C269.187042,100.696327 268.857971,97.939056 267.650299,95.644135 
	C264.684021,90.007370 266.580963,86.017403 270.541138,81.607933 
	C279.976868,71.101639 275.338928,56.306698 261.162628,51.950302 
	C258.531830,52.122833 255.901016,52.295368 252.608047,52.548000 
	C250.394958,54.002731 248.181854,55.457462 245.380707,57.045284 
	C244.963104,57.471485 244.545486,57.897690 243.461227,58.138821 
	C241.803574,57.043621 240.145920,55.948421 238.168121,54.319561 
	C237.445374,53.964237 236.722610,53.608913 235.588440,52.740353 
	C233.908447,51.442745 232.228455,50.145138 230.207108,48.322701 
	C229.470566,47.986832 228.734009,47.650963 227.444351,46.841797 
	C221.943848,44.626999 216.443329,42.412197 210.465622,39.730869 
	C208.959259,39.380444 207.452911,39.030014 205.352280,38.289078 
	C204.885986,38.241394 204.419708,38.193710 203.567551,37.742744 
	C203.035583,37.653427 202.503601,37.564106 201.271515,37.147190 
	C200.507294,37.112370 199.743073,37.077549 198.326202,36.631756 
	C196.528076,36.515259 194.729965,36.398766 192.270523,35.868015 
	C189.842178,35.757355 187.413849,35.646694 184.143250,35.219906 
	C181.767502,35.295609 179.391769,35.371315 176.244110,35.332642 
	C174.531128,35.665791 172.818130,35.998940 170.368103,36.290733 
	C168.905167,36.484940 167.442245,36.679142 165.151733,36.650742 
	C163.773926,36.930023 162.396118,37.209305 160.479202,37.490475 
	C160.022293,37.758320 159.565384,38.026165 158.341446,38.250813 
	C142.052673,41.829582 127.503761,48.876160 114.181168,60.289806 
	C113.342514,60.427795 112.503860,60.565784 111.620148,59.771248 
	C111.446976,59.178619 111.273804,58.585991 111.548286,57.270126 
	C111.992393,54.846493 112.436501,52.422863 113.369629,49.354214 
	C114.729507,46.081333 116.282654,42.870228 117.357918,39.506367 
	C117.813332,38.081665 117.264748,36.336033 117.172485,34.736267 
	C115.393929,34.919388 112.690674,34.440453 112.001266,35.403362 
	C109.395523,39.042850 107.443527,43.150398 104.815193,47.444057 
	C104.659172,47.966549 104.503143,48.489040 104.031410,49.629028 
	C104.051643,50.085114 104.071877,50.541195 103.889885,51.780991 
	C104.269257,57.191811 104.648628,62.602631 104.997726,67.998016 
	C104.997726,67.998016 105.013733,68.028008 104.195808,68.241798 
	C103.114243,68.197411 102.032669,68.153023 100.966164,68.042480 
z"/>
<path fill="#EA5011" opacity="1.000000" stroke="none" 
	d="
M8.811970,12.207502 
	C9.110457,14.038057 8.994747,16.031540 8.994366,18.025042 
	C8.979860,93.712936 8.975953,169.400833 8.925550,245.557114 
	C8.240195,243.781876 7.045557,241.539368 7.040981,239.294449 
	C6.935698,187.636490 6.960059,135.978256 6.960037,84.320084 
	C6.960027,62.323696 6.921124,40.327133 7.023966,18.331228 
	C7.033266,16.342117 7.954054,14.357268 8.811970,12.207502 
z"/>
<path fill="#EA5518" opacity="1.000000" stroke="none" 
	d="
M58.348389,8.779692 
	C56.607597,9.057627 55.215580,9.113618 53.412369,9.086872 
	C50.903709,8.671268 48.808624,8.069216 46.708374,8.050654 
	C35.760597,7.953896 24.811502,8.005537 13.870069,7.239831 
	C118.570869,7.239831 223.271667,7.239831 327.972473,7.239831 
	C327.986298,7.494820 328.000153,7.749809 328.014008,8.004798 
	C326.185822,8.004798 324.357635,8.004786 322.529449,8.004800 
	C236.892609,8.005459 151.255768,8.001814 65.618942,8.029861 
	C63.311623,8.030618 61.004417,8.374093 58.348389,8.779692 
z"/>
<path fill="#EC6027" opacity="1.000000" stroke="none" 
	d="
M161.018311,37.488583 
	C162.396118,37.209305 163.773926,36.930023 165.603729,37.126278 
	C167.746033,39.025993 169.436356,40.450172 170.850616,41.968483 
	C170.044754,42.570580 169.514938,43.078541 168.631973,43.737442 
	C166.758896,44.007618 165.238983,44.126862 163.327911,44.196354 
	C161.620148,44.626713 160.303543,45.106823 158.695007,45.799400 
	C157.244720,46.269073 156.086365,46.526287 154.742615,46.670860 
	C154.033127,46.901951 153.509033,47.245686 152.638840,47.782360 
	C147.744080,49.720592 143.195435,51.465885 138.338593,53.205963 
	C137.347122,53.576862 136.663803,53.952976 135.702484,54.588432 
	C122.036728,62.574329 109.561378,71.261459 100.030182,83.858788 
	C90.959702,95.847198 83.882225,108.813828 80.477646,123.331200 
	C73.027657,155.098434 78.069229,184.019531 102.019867,208.338364 
	C102.016808,209.500061 102.021599,210.274429 101.842575,211.326904 
	C99.112167,214.402832 96.565575,217.200638 93.652435,220.041260 
	C91.013016,221.046204 88.740150,222.008301 86.467293,222.970398 
	C86.430611,222.545776 86.393936,222.121140 86.754486,221.093658 
	C87.213638,219.718628 87.275543,218.946442 87.337448,218.174240 
	C87.337448,218.174240 87.368828,218.027634 87.831451,217.989716 
	C91.206436,217.352325 91.343636,215.870087 89.616417,213.794769 
	C89.905289,213.289307 90.194153,212.783844 91.054855,212.010025 
	C93.646515,209.911789 93.438438,208.323380 91.108978,206.964874 
	C71.101807,183.053558 66.021912,155.749100 72.477577,125.738152 
	C75.382576,112.233505 80.921005,99.912949 89.028152,88.087395 
	C90.491486,86.367714 91.356026,84.965561 92.220558,83.563416 
	C91.842514,83.220390 91.464470,82.877373 91.086433,82.534355 
	C89.882408,83.100418 88.678383,83.666481 87.474358,84.232544 
	C78.123512,77.636162 71.854004,68.852890 69.146049,57.433380 
	C70.038544,57.023563 70.522362,57.012333 71.333939,57.125229 
	C72.388924,58.280159 73.204155,59.260685 73.827148,60.351044 
	C75.826149,63.849621 77.591515,67.493408 79.767479,70.874969 
	C81.180916,73.071518 82.647949,73.055634 83.265999,70.199577 
	C85.022614,72.255417 86.510086,74.128059 87.689377,76.028328 
	C86.861229,76.676025 86.341263,77.296104 85.821289,77.916191 
	C86.441338,78.375450 87.061386,78.834717 87.681427,79.293976 
	C88.120430,78.531166 88.559425,77.768349 89.334732,76.979942 
	C90.468689,76.590378 91.266327,76.226410 92.063972,75.862450 
	C92.301270,75.987267 92.538559,76.112083 93.159927,76.760132 
	C94.988525,77.018097 96.433044,76.752831 97.877563,76.487556 
	C97.272034,75.318222 96.666504,74.148888 96.060982,72.979546 
	C93.228973,68.830040 90.396965,64.680534 87.632568,59.728764 
	C86.669647,53.613998 85.639114,48.301495 84.608582,42.988991 
	C84.505470,42.542858 84.402351,42.096725 84.713837,41.121464 
	C85.571800,37.433777 86.015167,34.275219 86.458534,31.116659 
	C87.052689,29.775675 87.646843,28.434690 88.961052,27.032127 
	C90.206345,26.947910 90.731590,26.925270 91.256828,26.902630 
	C95.728653,27.715046 94.141411,30.570662 93.101944,33.674740 
	C92.916779,34.801838 92.994202,35.407200 93.071625,36.012566 
	C93.215271,36.452106 93.358910,36.891651 93.165100,37.826923 
	C93.086716,39.552891 93.345787,40.783123 93.604866,42.013359 
	C93.736649,42.454334 93.868423,42.895313 93.816559,43.980324 
	C94.967346,49.086567 96.301788,53.548771 97.636230,58.010975 
	C97.712601,58.474403 97.788963,58.937832 97.686661,60.035088 
	C98.638123,63.127998 99.768265,65.587082 100.898407,68.046165 
	C100.898407,68.046165 100.966164,68.042480 101.088776,68.366776 
	C102.478836,68.470047 103.746284,68.249023 105.013733,68.028008 
	C105.013733,68.028008 104.997726,67.998016 105.321541,67.874161 
	C105.274544,62.236229 104.905540,56.722023 104.515297,51.209309 
	C104.509621,51.129051 104.239052,51.067539 104.092110,50.997276 
	C104.071877,50.541195 104.051643,50.085114 104.401566,49.248657 
	C104.930107,48.273117 105.088493,47.677952 105.246887,47.082787 
	C107.443527,43.150398 109.395523,39.042850 112.001266,35.403362 
	C112.690674,34.440453 115.393929,34.919388 117.172485,34.736267 
	C117.264748,36.336033 117.813332,38.081665 117.357918,39.506367 
	C116.282654,42.870228 114.729507,46.081333 112.804070,49.806526 
	C109.585976,52.502579 109.190125,55.078316 111.100624,57.993362 
	C111.273804,58.585991 111.446976,59.178619 111.563690,60.455284 
	C113.804184,64.220917 114.105537,61.204376 114.998840,59.996696 
	C127.503761,48.876160 142.052673,41.829582 158.908691,38.374653 
	C159.990067,38.161854 160.504181,37.825214 161.018311,37.488583 
M92.832405,58.290531 
	C92.957123,58.116848 93.081848,57.943165 93.206573,57.769489 
	C93.023689,57.879368 92.840805,57.989250 92.832405,58.290531 
z"/>
<path fill="#EB5A1F" opacity="1.000000" stroke="none" 
	d="
M199.955994,228.865707 
	C199.098312,229.364349 198.240631,229.863007 196.739685,230.306549 
	C195.391037,230.698105 194.685654,231.144760 193.980286,231.591385 
	C192.546585,232.019638 191.112900,232.447891 189.009216,232.683350 
	C185.219910,233.530106 182.100586,234.569672 178.981277,235.609222 
	C178.238693,235.741638 177.496109,235.874054 176.261078,235.652679 
	C174.904724,234.883438 174.040817,234.468002 173.128021,233.685394 
	C173.030594,232.580765 172.982086,231.843292 173.217377,230.999115 
	C174.003174,230.311050 174.505203,229.729706 175.344254,228.961792 
	C177.477371,228.588333 179.273468,228.401443 181.331390,228.376495 
	C182.731766,228.088837 183.870316,227.639252 185.326416,226.991684 
	C189.798492,225.359314 193.953018,223.924911 198.458710,222.548370 
	C199.543350,222.141144 200.276794,221.676071 201.292191,220.988708 
	C209.191757,215.839996 216.809128,210.913162 224.427216,205.987488 
	C226.070190,204.925171 227.715897,203.867081 229.734390,202.754059 
	C230.687225,201.973145 231.266006,201.245193 231.909149,200.266556 
	C232.350021,199.689224 232.726517,199.362579 233.460312,199.005249 
	C234.876511,197.644806 235.935410,196.315033 237.126495,194.676147 
	C241.622223,188.583664 245.985794,182.800293 250.625290,176.860962 
	C251.208969,175.951553 251.516739,175.198105 251.854767,174.103699 
	C253.644211,170.177811 255.403397,166.592896 257.392426,162.945740 
	C257.797028,162.269608 257.971771,161.655701 258.114441,160.682098 
	C258.484131,159.218857 258.885834,158.115295 259.575256,156.824829 
	C260.023712,155.788300 260.184509,154.938690 260.371033,153.710815 
	C261.161530,149.921310 261.926270,146.510086 262.949158,142.912704 
	C263.324341,141.931595 263.441406,141.136612 263.469360,139.948990 
	C263.858032,137.737885 264.335815,135.919434 265.073151,133.842438 
	C265.373596,127.053650 265.706512,120.506355 265.327484,114.000549 
	C265.148315,110.924599 263.606018,107.928070 262.489014,104.544983 
	C262.116638,102.612328 261.936615,101.030251 261.798737,99.146652 
	C261.430267,98.197594 261.019653,97.550064 260.393250,96.582428 
	C255.929062,86.781525 255.929001,86.781456 263.143433,79.457047 
	C263.490814,79.104362 263.855713,78.767914 264.188538,78.402092 
	C270.857880,71.071236 269.760620,64.405197 260.920410,59.241386 
	C259.144073,59.151592 257.529633,59.329815 255.585876,59.668114 
	C252.221115,61.990459 249.185654,64.152725 246.020905,66.006409 
	C245.543518,64.270386 245.195404,62.842945 244.509888,60.031975 
	C243.216187,62.619160 242.536377,63.978683 241.530228,65.237259 
	C239.418137,63.576275 237.632385,62.016228 235.846039,60.094452 
	C234.815491,59.315002 233.785553,58.897282 232.463898,58.412926 
	C231.436905,57.696053 230.701614,57.045815 229.931198,55.997982 
	C228.497040,54.769535 227.098007,53.938686 225.504852,53.121666 
	C225.032425,53.047569 224.871262,52.859352 224.777496,52.241280 
	C223.761002,51.751961 222.794189,51.592209 221.488953,51.358307 
	C219.777603,50.492710 218.404694,49.701260 216.887665,48.594830 
	C213.166473,46.828304 209.589386,45.376755 206.009079,43.525566 
	C206.015961,42.060238 206.026062,40.994545 206.360229,39.965675 
	C208.103790,40.067463 209.523300,40.132431 210.942825,40.197395 
	C216.443329,42.412197 221.943848,44.626999 227.878418,47.353039 
	C229.057800,48.192028 229.803131,48.519775 230.548462,48.847527 
	C232.228455,50.145138 233.908447,51.442745 235.941833,53.275986 
	C237.026245,54.158817 237.757263,54.506020 238.488266,54.853226 
	C240.145920,55.948421 241.803574,57.043621 244.016876,58.303940 
	C245.037949,57.950104 245.503357,57.431149 245.968765,56.912193 
	C248.181854,55.457462 250.394958,54.002731 253.462128,52.632298 
	C256.793671,52.614079 259.271118,52.511562 261.748566,52.409046 
	C275.338928,56.306698 279.976868,71.101639 270.541138,81.607933 
	C266.580963,86.017403 264.684021,90.007370 267.650299,95.644135 
	C268.857971,97.939056 269.187042,100.696327 269.703186,103.939819 
	C270.041534,107.100235 270.592560,109.564064 271.143585,112.027893 
	C271.372650,113.138672 271.601715,114.249451 271.583374,115.988274 
	C269.843231,121.151726 268.605682,125.679573 271.735413,130.077850 
	C271.701782,131.740799 271.668182,133.403732 271.260864,135.594910 
	C270.841675,137.065506 270.796173,138.007858 270.750671,138.950211 
	C270.700348,139.689590 270.650055,140.428955 270.228424,141.600250 
	C269.880096,142.683624 269.903168,143.335068 269.926208,143.986526 
	C269.729431,145.783951 269.532684,147.581390 268.770416,149.867889 
	C267.959808,151.522629 267.714691,152.688309 267.469574,153.853989 
	C267.357483,154.415329 267.245392,154.976669 266.689514,155.861359 
	C266.106201,157.104721 265.966675,158.024765 265.827148,158.944809 
	C265.636871,159.798401 265.446625,160.651978 264.705444,161.936615 
	C263.933014,163.533432 263.711548,164.699203 263.490112,165.864990 
	C263.565094,166.190872 263.490448,166.477844 262.768250,166.923737 
	C261.509888,167.642990 260.749420,168.164398 259.988983,168.685806 
	C260.506683,169.171860 261.024384,169.657913 261.542084,170.143967 
	C260.189789,172.954086 258.837494,175.764206 256.892090,178.917175 
	C255.930542,180.039871 255.562088,180.819717 255.193634,181.599564 
	C255.193619,181.599564 255.200562,181.882019 254.766174,182.062820 
	C253.900299,183.193817 253.468811,184.144012 253.037308,185.094193 
	C242.710800,201.960876 228.079178,214.212097 210.584869,224.144104 
	C209.285172,224.668961 208.632782,225.137985 207.980408,225.606995 
	C206.643097,226.312973 205.305817,227.018951 203.419174,227.520844 
	C201.898560,227.833054 200.927277,228.349380 199.955994,228.865707 
z"/>
<path fill="#EA5518" opacity="1.000000" stroke="none" 
	d="
M86.372665,223.378082 
	C88.740150,222.008301 91.013016,221.046204 93.724792,220.315277 
	C94.063683,220.706757 93.963646,220.867035 93.564217,221.221832 
	C93.430809,222.929993 93.596802,224.443649 93.977386,226.199814 
	C94.781357,227.298630 95.370728,228.154938 95.751617,229.235031 
	C92.869019,234.290588 96.256882,233.337982 98.981171,233.365082 
	C99.368050,234.535294 99.733284,235.379623 100.098526,236.223938 
	C100.731163,235.789581 101.363800,235.355240 102.391769,234.940933 
	C105.218803,234.327454 107.650490,233.693924 110.196335,233.278839 
	C109.843010,234.416107 109.375542,235.334946 108.908066,236.253784 
	C109.150284,236.569305 109.392502,236.884842 109.634720,237.200363 
	C115.105103,233.185822 120.575493,229.171280 126.130173,225.386658 
	C126.868729,225.635284 127.523003,225.653976 128.512421,225.702927 
	C129.601196,226.049820 130.354858,226.366470 130.989807,227.018280 
	C129.886902,228.644852 128.902725,229.936264 127.918549,231.227692 
	C124.751839,229.491699 122.330513,229.893967 119.827171,232.879990 
	C117.554878,235.590408 114.425507,237.582306 110.965714,239.728973 
	C106.026253,239.464203 101.795082,239.361435 97.563911,239.258667 
	C94.398766,236.074295 91.233620,232.889908 88.196381,229.161346 
	C87.959602,228.059555 87.594902,227.501968 87.230209,226.944366 
	C86.912819,225.891510 86.595428,224.838638 86.372665,223.378082 
z"/>
<path fill="#EC6128" opacity="1.000000" stroke="none" 
	d="
M82.996857,70.016388 
	C82.647949,73.055634 81.180916,73.071518 79.767479,70.874969 
	C77.591515,67.493408 75.826149,63.849621 73.827148,60.351044 
	C73.204155,59.260685 72.388924,58.280159 71.333618,56.657421 
	C71.005539,50.897789 71.005539,45.730087 71.005539,39.838348 
	C73.501869,40.914410 74.685570,41.424656 75.900787,42.319481 
	C75.953346,43.472393 75.974403,44.240726 75.864319,45.210052 
	C76.158592,45.944912 76.584007,46.478779 77.010834,47.244293 
	C77.012253,47.475945 77.009941,47.939243 77.005905,48.358158 
	C77.346397,50.543228 77.651100,52.318279 78.043335,54.073772 
	C79.007507,58.389057 80.011955,62.695339 81.111481,67.091278 
	C81.222763,67.177315 81.623253,67.227608 81.623253,67.227608 
	C81.623253,67.227608 81.985741,67.032135 82.251801,66.656807 
	C82.926178,65.453743 83.334503,64.625999 83.742828,63.798267 
	C84.150925,64.950333 84.559013,66.102402 84.717651,67.720802 
	C83.977760,68.796883 83.487305,69.406639 82.996857,70.016388 
z"/>
<path fill="#EB5A1F" opacity="1.000000" stroke="none" 
	d="
M75.869278,41.934902 
	C74.685570,41.424656 73.501869,40.914410 71.005539,39.838348 
	C71.005539,45.730087 71.005539,50.897789 71.005859,56.533298 
	C70.522362,57.012333 70.038544,57.023563 69.191971,57.045536 
	C68.547997,55.283184 68.266777,53.510086 68.223633,51.137909 
	C68.138809,49.675789 67.815895,48.812752 67.492989,47.949711 
	C67.339462,46.576298 67.185944,45.202888 67.474487,43.266167 
	C68.302460,41.127007 68.688385,39.551147 69.371384,37.954277 
	C70.205818,37.485428 70.743187,37.037594 71.280556,36.589764 
	C70.563896,36.063393 69.847244,35.537022 68.932213,34.879929 
	C68.733841,34.749210 68.308044,34.538372 68.308044,34.538372 
	C68.414398,33.586964 68.520760,32.635555 68.995590,31.272381 
	C69.217972,30.238945 69.071861,29.617277 68.925751,28.995609 
	C69.220146,27.891151 69.514542,26.786695 70.256859,25.303034 
	C72.954865,24.339964 75.204941,23.756102 77.455017,23.172239 
	C77.132401,24.582851 76.809784,25.993464 75.965027,27.722221 
	C75.036850,28.727520 74.630798,29.414677 74.224747,30.101833 
	C74.762489,33.118992 75.300232,36.136150 75.890976,39.869205 
	C75.919083,41.035034 75.894180,41.484970 75.869278,41.934902 
z"/>
<path fill="#EA5011" opacity="1.000000" stroke="none" 
	d="
M171.126678,41.874352 
	C169.436356,40.450172 167.746033,39.025993 166.017517,37.237579 
	C167.442245,36.679142 168.905167,36.484940 171.009537,36.492485 
	C172.724167,36.839382 173.797348,36.984528 175.083405,37.450996 
	C179.663742,39.383034 183.993881,40.297215 188.461029,37.086708 
	C190.190033,36.819000 191.560928,36.550640 192.931839,36.282272 
	C194.729965,36.398766 196.528076,36.515259 198.505310,37.127510 
	C198.089233,39.019627 197.494080,40.415985 196.731018,41.940968 
	C196.329712,42.240234 196.160568,42.460251 195.657364,42.811455 
	C194.193039,42.772163 193.127014,42.651062 191.856476,42.229401 
	C188.074066,42.020157 184.496170,42.111477 180.533646,42.384483 
	C178.737747,42.604195 177.326462,42.642216 175.617950,42.492203 
	C173.922714,42.160896 172.524689,42.017624 171.126678,41.874352 
z"/>
<path fill="#EC6128" opacity="1.000000" stroke="none" 
	d="
M173.176926,234.052551 
	C174.040817,234.468002 174.904724,234.883438 175.887573,235.575119 
	C164.101776,238.655228 152.187103,237.418106 140.319412,235.703415 
	C137.456436,235.289780 134.748093,233.805923 132.247208,232.520004 
	C134.350708,232.485016 136.175659,232.744263 138.303116,233.204544 
	C140.040695,233.618591 141.475769,233.831589 143.274399,234.252380 
	C153.484283,234.324280 163.330612,234.188416 173.176926,234.052551 
z"/>
<path fill="#EA5113" opacity="1.000000" stroke="none" 
	d="
M138.000595,233.003510 
	C136.175659,232.744263 134.350708,232.485016 132.133438,232.178986 
	C130.565979,232.049240 129.390839,231.966248 128.067139,231.555481 
	C128.902725,229.936264 129.886902,228.644852 131.392670,227.072327 
	C135.605347,227.558456 139.296448,228.325684 142.979874,229.410858 
	C142.988281,230.152542 143.004395,230.576294 142.669647,231.023285 
	C140.879379,231.698868 139.439987,232.351196 138.000595,233.003510 
z"/>
<path fill="#EB5C22" opacity="1.000000" stroke="none" 
	d="
M196.898911,41.812347 
	C197.494080,40.415985 198.089233,39.019627 198.831635,37.333000 
	C199.743073,37.077549 200.507294,37.112370 201.701691,37.518826 
	C202.739044,37.975651 203.346237,38.060841 203.953415,38.146027 
	C204.419708,38.193710 204.885986,38.241394 205.652618,38.693638 
	C205.980698,39.375084 206.008438,39.651970 206.036179,39.928856 
	C206.026062,40.994545 206.015961,42.060238 205.831818,43.645618 
	C205.422409,44.330257 205.222656,44.530693 204.662262,44.800339 
	C202.187866,44.404755 200.109711,43.975445 197.953476,43.296349 
	C197.549911,42.635155 197.224411,42.223751 196.898911,41.812347 
z"/>
<path fill="#EB5A1F" opacity="1.000000" stroke="none" 
	d="
M81.000206,67.005241 
	C80.011955,62.695339 79.007507,58.389057 78.043335,54.073772 
	C77.651100,52.318279 77.346397,50.543228 77.334366,48.382412 
	C78.105865,47.992588 78.544861,47.997421 78.983864,48.002258 
	C80.638008,53.039841 82.292160,58.077419 83.844574,63.456635 
	C83.334503,64.625999 82.926178,65.453743 82.005608,66.648926 
	C81.493355,67.016380 81.000206,67.005241 81.000206,67.005241 
z"/>
<path fill="#EC6027" opacity="1.000000" stroke="none" 
	d="
M188.102951,37.086052 
	C183.993881,40.297215 179.663742,39.383034 175.357635,37.357643 
	C175.951340,36.444317 176.483688,35.945667 177.016022,35.447021 
	C179.391769,35.371315 181.767502,35.295609 184.726227,35.631844 
	C186.240448,36.391205 187.171692,36.738625 188.102951,37.086052 
z"/>
<path fill="#F08154" opacity="1.000000" stroke="none" 
	d="
M271.880554,129.667999 
	C268.605682,125.679573 269.843231,121.151726 271.573853,116.329056 
	C271.882965,120.447258 271.954315,124.852707 271.880554,129.667999 
z"/>
<path fill="#EA5518" opacity="1.000000" stroke="none" 
	d="
M77.789658,22.932209 
	C75.204941,23.756102 72.954865,24.339964 70.363876,24.961384 
	C70.370934,23.765692 70.375923,22.224625 71.144211,21.368620 
	C72.416962,19.950554 74.122528,18.103533 75.750595,17.993877 
	C79.024757,17.773352 78.281654,20.599342 77.789658,22.932209 
z"/>
<path fill="#EC652E" opacity="1.000000" stroke="none" 
	d="
M103.990997,51.389133 
	C104.239052,51.067539 104.509621,51.129051 104.515297,51.209309 
	C104.905540,56.722023 105.274544,62.236229 105.336685,67.881882 
	C104.648628,62.602631 104.269257,57.191811 103.990997,51.389133 
z"/>
<path fill="#EC642D" opacity="1.000000" stroke="none" 
	d="
M84.500549,43.419418 
	C85.639114,48.301495 86.669647,53.613998 87.675499,59.389034 
	C86.564720,54.517658 85.478615,49.183750 84.500549,43.419418 
z"/>
<path fill="#EB5A1F" opacity="1.000000" stroke="none" 
	d="
M83.265999,70.199577 
	C83.487305,69.406639 83.977760,68.796883 84.758102,68.085678 
	C87.307510,70.405022 89.567009,72.825821 91.945244,75.554535 
	C91.266327,76.226410 90.468689,76.590378 89.187119,76.793991 
	C88.491661,76.396255 88.256454,76.185280 87.997559,76.000710 
	C86.510086,74.128059 85.022614,72.255417 83.265999,70.199577 
z"/>
<path fill="#EE7543" opacity="1.000000" stroke="none" 
	d="
M97.799484,239.546448 
	C101.795082,239.361435 106.026253,239.464203 110.620140,239.751678 
	C106.666924,239.902359 102.350998,239.868301 97.799484,239.546448 
z"/>
<path fill="#EC652E" opacity="1.000000" stroke="none" 
	d="
M97.751419,57.624805 
	C96.301788,53.548771 94.967346,49.086567 93.780228,44.326492 
	C95.240578,48.431957 96.553589,52.835297 97.751419,57.624805 
z"/>
<path fill="#EC6128" opacity="1.000000" stroke="none" 
	d="
M179.358368,235.666458 
	C182.100586,234.569672 185.219910,233.530106 188.634888,232.655762 
	C185.865524,233.788528 182.800491,234.756104 179.358368,235.666458 
z"/>
<path fill="#EC642D" opacity="1.000000" stroke="none" 
	d="
M96.162308,73.413620 
	C96.666504,74.148888 97.272034,75.318222 97.877563,76.487556 
	C96.433044,76.752831 94.988525,77.018097 93.392807,77.087997 
	C94.248962,75.877663 95.256302,74.862686 96.162308,73.413620 
z"/>
<path fill="#EC642D" opacity="1.000000" stroke="none" 
	d="
M86.225098,31.425346 
	C86.015167,34.275219 85.571800,37.433777 84.858948,40.800739 
	C85.056854,37.917439 85.524261,34.825737 86.225098,31.425346 
z"/>
<path fill="#EC642D" opacity="1.000000" stroke="none" 
	d="
M87.673294,84.525146 
	C88.678383,83.666481 89.882408,83.100418 91.086433,82.534355 
	C91.464470,82.877373 91.842514,83.220390 92.220558,83.563416 
	C91.356026,84.965561 90.491486,86.367714 89.301819,87.880920 
	C88.608551,86.933899 88.240395,85.875816 87.673294,84.525146 
z"/>
<path fill="#EC652E" opacity="1.000000" stroke="none" 
	d="
M188.461029,37.086704 
	C187.171692,36.738625 186.240448,36.391205 185.147339,35.789909 
	C187.413849,35.646694 189.842178,35.757355 192.601181,36.075146 
	C191.560928,36.550640 190.190033,36.819000 188.461029,37.086704 
z"/>
<path fill="#EC642D" opacity="1.000000" stroke="none" 
	d="
M111.324455,57.631744 
	C109.190125,55.078316 109.585976,52.502579 112.559555,50.129032 
	C112.436501,52.422863 111.992393,54.846493 111.324455,57.631744 
z"/>
<path fill="#ED6A35" opacity="1.000000" stroke="none" 
	d="
M69.074310,37.975292 
	C68.688385,39.551147 68.302460,41.127007 67.613510,42.868378 
	C67.498413,40.401768 67.686340,37.769642 68.091156,34.837944 
	C68.308044,34.538372 68.733841,34.749210 68.903381,35.249916 
	C69.073380,36.492180 69.073845,37.233738 69.074310,37.975292 
z"/>
<path fill="#ED6832" opacity="1.000000" stroke="none" 
	d="
M78.918900,47.621342 
	C78.544861,47.997421 78.105865,47.992588 77.338402,47.963497 
	C77.009941,47.939243 77.012253,47.475945 76.946335,46.964695 
	C76.585426,45.971985 76.290443,45.490524 75.995461,45.009064 
	C75.974403,44.240726 75.953346,43.472393 75.900787,42.319481 
	C75.894180,41.484970 75.919083,41.035034 75.990784,40.249939 
	C76.976372,42.356659 77.915146,44.798546 78.918900,47.621342 
z"/>
<path fill="#F08154" opacity="1.000000" stroke="none" 
	d="
M271.252441,111.720306 
	C270.592560,109.564064 270.041534,107.100235 269.673370,104.334930 
	C270.357910,106.493202 270.859589,108.952957 271.252441,111.720306 
z"/>
<path fill="#EC652E" opacity="1.000000" stroke="none" 
	d="
M100.804092,67.685623 
	C99.768265,65.587082 98.638123,63.127998 97.621010,60.384193 
	C98.725945,62.508011 99.717857,64.916542 100.804092,67.685623 
z"/>
<path fill="#EE7543" opacity="1.000000" stroke="none" 
	d="
M261.455597,52.179672 
	C259.271118,52.511562 256.793671,52.614079 253.793213,52.592247 
	C255.901016,52.295368 258.531830,52.122833 261.455597,52.179672 
z"/>
<path fill="#EC652E" opacity="1.000000" stroke="none" 
	d="
M176.630066,35.389832 
	C176.483688,35.945667 175.951340,36.444317 175.144775,37.036316 
	C173.797348,36.984528 172.724167,36.839382 171.378052,36.513161 
	C172.818130,35.998940 174.531128,35.665791 176.630066,35.389832 
z"/>
<path fill="#EA5518" opacity="1.000000" stroke="none" 
	d="
M89.333847,213.994171 
	C91.343636,215.870087 91.206436,217.352325 87.906189,217.995499 
	C88.029297,216.757324 88.540283,215.475464 89.333847,213.994171 
z"/>
<path fill="#EC652E" opacity="1.000000" stroke="none" 
	d="
M91.173050,207.289047 
	C93.438438,208.323380 93.646515,209.911789 91.314499,211.871216 
	C91.080582,210.538254 91.158852,209.075729 91.173050,207.289047 
z"/>
<path fill="#EC6128" opacity="1.000000" stroke="none" 
	d="
M261.712708,169.909805 
	C261.024384,169.657913 260.506683,169.171860 259.988983,168.685806 
	C260.749420,168.164398 261.509888,167.642990 262.581787,167.058075 
	C262.556641,167.888290 262.220001,168.781967 261.712708,169.909805 
z"/>
<path fill="#EC652E" opacity="1.000000" stroke="none" 
	d="
M206.360229,39.965675 
	C206.008438,39.651970 205.980698,39.375084 205.949768,38.888893 
	C207.452911,39.030014 208.959259,39.380444 210.704224,39.964134 
	C209.523300,40.132431 208.103790,40.067463 206.360229,39.965675 
z"/>
<path fill="#EC642D" opacity="1.000000" stroke="none" 
	d="
M114.590004,60.143250 
	C114.105537,61.204376 113.804184,64.220917 111.586212,60.921547 
	C112.503860,60.565784 113.342514,60.427795 114.590004,60.143250 
z"/>
<path fill="#EC652E" opacity="1.000000" stroke="none" 
	d="
M104.604767,68.134903 
	C103.746284,68.249023 102.478836,68.470047 101.081245,68.399841 
	C102.032669,68.153023 103.114243,68.197411 104.604767,68.134903 
z"/>
<path fill="#EC652E" opacity="1.000000" stroke="none" 
	d="
M93.680817,41.608208 
	C93.345787,40.783123 93.086716,39.552891 93.054588,38.160255 
	C93.439949,39.066254 93.598351,40.134651 93.680817,41.608208 
z"/>
<path fill="#EC6128" opacity="1.000000" stroke="none" 
	d="
M200.245392,228.862701 
	C200.927277,228.349380 201.898560,227.833054 203.042801,227.565918 
	C202.322113,228.163300 201.428452,228.511505 200.245392,228.862701 
z"/>
<path fill="#ED6A35" opacity="1.000000" stroke="none" 
	d="
M67.420364,48.259537 
	C67.815895,48.812752 68.138809,49.675789 68.292244,50.748756 
	C67.864426,50.162243 67.606079,49.365803 67.420364,48.259537 
z"/>
<path fill="#EC6128" opacity="1.000000" stroke="none" 
	d="
M263.727173,165.605103 
	C263.711548,164.699203 263.933014,163.533432 264.474030,162.180328 
	C264.517151,163.110382 264.240723,164.227798 263.727173,165.605103 
z"/>
<path fill="#F08154" opacity="1.000000" stroke="none" 
	d="
M270.952454,138.687759 
	C270.796173,138.007858 270.841675,137.065506 271.115356,135.986267 
	C271.280396,136.708023 271.217316,137.566666 270.952454,138.687759 
z"/>
<path fill="#EC6128" opacity="1.000000" stroke="none" 
	d="
M266.021179,158.692352 
	C265.966675,158.024765 266.106201,157.104721 266.503906,156.087158 
	C266.579742,156.806396 266.397491,157.623138 266.021179,158.692352 
z"/>
<path fill="#EC6128" opacity="1.000000" stroke="none" 
	d="
M267.692200,153.582642 
	C267.714691,152.688309 267.959808,151.522629 268.530945,150.175903 
	C268.542969,151.100342 268.228882,152.205826 267.692200,153.582642 
z"/>
<path fill="#EA5518" opacity="1.000000" stroke="none" 
	d="
M74.515839,30.009647 
	C74.630798,29.414677 75.036850,28.727520 75.736816,28.019455 
	C75.622803,28.638184 75.214859,29.277821 74.515839,30.009647 
z"/>
<path fill="#EC6128" opacity="1.000000" stroke="none" 
	d="
M253.308441,184.936493 
	C253.468811,184.144012 253.900299,183.193817 254.637314,182.120712 
	C254.488419,182.924789 254.033997,183.851776 253.308441,184.936493 
z"/>
<path fill="#EC6128" opacity="1.000000" stroke="none" 
	d="
M194.299210,231.601028 
	C194.685654,231.144760 195.391037,230.698105 196.433990,230.279114 
	C196.053741,230.741409 195.335938,231.176041 194.299210,231.601028 
z"/>
<path fill="#EE7543" opacity="1.000000" stroke="none" 
	d="
M87.142700,218.361938 
	C87.275543,218.946442 87.213638,219.718628 86.904083,220.801788 
	C86.753609,220.258377 86.850777,219.404007 87.142700,218.361938 
z"/>
<path fill="#EC652E" opacity="1.000000" stroke="none" 
	d="
M203.760483,37.944386 
	C203.346237,38.060841 202.739044,37.975651 202.051758,37.682625 
	C202.503601,37.564106 203.035583,37.653427 203.760483,37.944386 
z"/>
<path fill="#EC6128" opacity="1.000000" stroke="none" 
	d="
M208.289795,225.602753 
	C208.632782,225.137985 209.285172,224.668961 210.258041,224.191757 
	C209.918762,224.655228 209.258987,225.126862 208.289795,225.602753 
z"/>
<path fill="#EC652E" opacity="1.000000" stroke="none" 
	d="
M93.178543,35.681740 
	C92.994202,35.407200 92.916779,34.801838 92.992340,34.091698 
	C93.192039,34.441589 93.238754,34.896248 93.178543,35.681740 
z"/>
<path fill="#EE7543" opacity="1.000000" stroke="none" 
	d="
M87.187454,227.233673 
	C87.594902,227.501968 87.959602,228.059555 88.181946,228.803268 
	C87.741287,228.500580 87.442993,228.011765 87.187454,227.233673 
z"/>
<path fill="#EC652E" opacity="1.000000" stroke="none" 
	d="
M160.748749,37.489525 
	C160.504181,37.825214 159.990067,38.161854 159.292206,38.396252 
	C159.565384,38.026165 160.022293,37.758320 160.748749,37.489525 
z"/>
<path fill="#EB5C22" opacity="1.000000" stroke="none" 
	d="
M238.328186,54.586391 
	C237.757263,54.506020 237.026245,54.158817 236.147552,53.532604 
	C236.722610,53.608913 237.445374,53.964237 238.328186,54.586391 
z"/>
<path fill="#EC652E" opacity="1.000000" stroke="none" 
	d="
M105.031036,47.263420 
	C105.088493,47.677952 104.930107,48.273117 104.559418,48.939907 
	C104.503143,48.489040 104.659172,47.966549 105.031036,47.263420 
z"/>
<path fill="#F08154" opacity="1.000000" stroke="none" 
	d="
M270.093079,143.750381 
	C269.903168,143.335068 269.880096,142.683624 270.059662,141.934937 
	C270.261475,142.396545 270.260712,142.955383 270.093079,143.750381 
z"/>
<path fill="#EB5C22" opacity="1.000000" stroke="none" 
	d="
M230.377777,48.585114 
	C229.803131,48.519775 229.057800,48.192028 228.154968,47.589687 
	C228.734009,47.650963 229.470566,47.986832 230.377777,48.585114 
z"/>
<path fill="#EB5C22" opacity="1.000000" stroke="none" 
	d="
M245.674744,56.978741 
	C245.503357,57.431149 245.037949,57.950104 244.350220,58.396477 
	C244.545486,57.897690 244.963104,57.471485 245.674744,56.978741 
z"/>
<path fill="#EC6128" opacity="1.000000" stroke="none" 
	d="
M255.458649,181.414246 
	C255.562088,180.819717 255.930542,180.039871 256.604858,179.114944 
	C256.515015,179.722885 256.119324,180.475906 255.458649,181.414246 
z"/>
<path fill="#EC642D" opacity="1.000000" stroke="none" 
	d="
M91.094391,26.759167 
	C90.731590,26.925270 90.206345,26.947910 89.286804,26.964748 
	C89.572319,26.844532 90.252136,26.730118 91.094391,26.759167 
z"/>
<path fill="#EA5518" opacity="1.000000" stroke="none" 
	d="
M68.799728,29.320801 
	C69.071861,29.617277 69.217972,30.238945 69.119507,30.934372 
	C68.807861,30.554083 68.740784,30.100037 68.799728,29.320801 
z"/>
<path fill="#FFFDFC" opacity="1.000000" stroke="none" 
	d="
M198.031540,43.546135 
	C200.109711,43.975445 202.187866,44.404755 204.928680,45.039646 
	C209.404816,46.466755 213.218307,47.688282 217.031784,48.909805 
	C218.404694,49.701260 219.777603,50.492710 221.719147,51.598907 
	C223.134262,52.132713 223.980743,52.351776 224.827209,52.570839 
	C224.871262,52.859352 225.032425,53.047569 225.632568,53.446442 
	C227.291718,54.636784 228.629028,55.516182 229.966339,56.395576 
	C230.701614,57.045815 231.436905,57.696053 232.646393,58.665489 
	C234.029297,59.475182 234.937958,59.965679 235.846634,60.456181 
	C237.632385,62.016228 239.418137,63.576275 241.637665,65.536674 
	C243.330688,67.145576 244.460327,69.753021 246.150177,66.314987 
	C249.185654,64.152725 252.221115,61.990459 256.012817,59.739315 
	C258.206787,59.603428 259.644501,59.556416 261.082245,59.509399 
	C269.760620,64.405197 270.857880,71.071236 264.188538,78.402092 
	C263.855713,78.767914 263.490814,79.104362 263.143433,79.457047 
	C255.929001,86.781456 255.929062,86.781525 260.352173,96.878677 
	C260.936737,98.146080 261.346649,98.797127 261.756592,99.448174 
	C261.936615,101.030251 262.116638,102.612328 262.471436,104.946030 
	C263.368652,115.165421 264.091095,124.633194 264.813599,134.100967 
	C264.335815,135.919434 263.858032,137.737885 263.256104,140.165298 
	C262.984955,141.549118 262.837982,142.323990 262.691010,143.098846 
	C261.926270,146.510086 261.161530,149.921310 260.166321,153.957397 
	C259.719757,155.392075 259.503662,156.201904 259.287567,157.011734 
	C258.885834,158.115295 258.484131,159.218857 257.908264,160.879517 
	C257.543640,161.960388 257.353119,162.484177 257.162598,163.007965 
	C255.403397,166.592896 253.644211,170.177811 251.599579,174.279236 
	C250.992569,175.536133 250.670959,176.276520 250.349365,177.016922 
	C245.985794,182.800293 241.622223,188.583664 236.838409,194.809021 
	C235.313110,196.512634 234.208069,197.774277 233.103027,199.035919 
	C232.726517,199.362579 232.350021,199.689224 231.618790,200.444351 
	C230.629486,201.517563 229.994904,202.162308 229.360336,202.807037 
	C227.715897,203.867081 226.070190,204.925171 224.427216,205.987488 
	C216.809128,210.913162 209.191757,215.839996 200.965866,220.990753 
	C199.607574,221.640213 198.857559,222.065369 198.107544,222.490524 
	C193.953018,223.924911 189.798492,225.359314 184.977264,226.971802 
	C183.230225,227.504791 182.149887,227.859680 181.069550,228.214569 
	C179.273468,228.401443 177.477371,228.588333 174.974564,228.922729 
	C172.880188,229.485352 171.492523,229.900467 169.637817,230.222229 
	C161.756470,230.180084 154.342194,230.231277 146.651917,230.064301 
	C145.246460,229.595078 144.117004,229.343994 142.987564,229.092911 
	C139.296448,228.325684 135.605347,227.558456 131.511368,226.737183 
	C130.354858,226.366470 129.601196,226.049820 128.471359,225.400421 
	C127.384514,224.771896 126.673866,224.476135 125.729851,223.915207 
	C122.433693,221.709656 119.940048,221.808228 117.447517,224.940659 
	C115.330605,227.601089 112.527840,229.715775 109.627853,232.123810 
	C103.918594,234.836349 99.821266,232.418854 95.960098,229.011230 
	C95.370728,228.154938 94.781357,227.298630 94.091324,225.905457 
	C93.948318,223.921494 93.905968,222.474411 93.863617,221.027328 
	C93.963646,220.867035 94.063683,220.706757 94.091347,220.272446 
	C96.565575,217.200638 99.112167,214.402832 102.106735,211.262787 
	C102.379044,209.930725 102.203377,208.940872 102.027710,207.951035 
	C78.069229,184.019531 73.027657,155.098434 80.477646,123.331200 
	C83.882225,108.813828 90.959702,95.847198 100.030182,83.858788 
	C109.561378,71.261459 122.036728,62.574329 136.007965,54.613205 
	C137.276566,53.989483 137.961670,53.600327 138.646774,53.211174 
	C143.195435,51.465885 147.744080,49.720592 152.914474,47.797363 
	C154.000137,47.340782 154.464066,47.062138 154.927994,46.783497 
	C156.086365,46.526287 157.244720,46.269073 159.054794,45.821232 
	C161.044022,45.169098 162.381531,44.707596 163.719055,44.246101 
	C165.238983,44.126862 166.758896,44.007618 169.034103,43.799480 
	C171.831314,43.367134 173.873260,43.023685 175.915192,42.680237 
	C177.326462,42.642216 178.737747,42.604195 180.987930,42.491676 
	C185.238220,42.454769 188.649597,42.492367 192.060974,42.529961 
	C193.127014,42.651062 194.193039,42.772163 195.841278,43.026581 
	C196.959503,43.288639 197.495514,43.417385 198.031540,43.546135 
M235.767700,122.730064 
	C235.637863,125.519142 235.508011,128.308228 235.156677,131.717117 
	C235.148102,132.153595 235.139511,132.590057 234.763672,133.455521 
	C234.596573,133.995422 234.429474,134.535339 233.993073,135.911560 
	C234.225891,143.473343 231.048340,150.144928 227.864563,156.592239 
	C221.787903,168.897842 212.650787,178.886597 201.460678,186.677399 
	C187.406677,196.462128 171.602905,201.221161 154.374435,200.818085 
	C151.894089,200.760056 149.107285,200.064102 148.766907,204.377975 
	C148.918549,205.128036 149.070190,205.878098 149.467117,207.333572 
	C154.108383,211.634720 159.646347,209.320099 165.625046,209.649033 
	C167.400848,209.361359 169.176651,209.073669 171.742004,208.774567 
	C172.776993,208.618515 173.811966,208.462479 175.558365,208.476410 
	C177.578812,207.865143 179.599243,207.253860 182.255508,206.465836 
	C182.833359,206.157654 183.411209,205.849472 184.525940,205.556595 
	C184.993515,205.309387 185.461090,205.062180 186.655609,204.894592 
	C189.102005,203.819351 191.548386,202.744110 194.635284,201.634659 
	C195.377121,201.220520 196.118973,200.806381 197.503448,200.322784 
	C200.343292,198.570236 203.183151,196.817688 206.670364,194.899765 
	C207.352661,194.337708 208.034958,193.775665 209.330750,193.071365 
	C210.882095,191.823364 212.463303,190.610489 213.979904,189.321609 
	C222.774857,181.847229 230.586075,173.573334 235.855515,162.414688 
	C236.166153,161.609680 236.476791,160.804672 237.236877,159.416122 
	C238.162155,157.278793 239.087418,155.141479 240.364594,152.580261 
	C240.423340,152.044388 240.482101,151.508514 241.001587,150.347656 
	C241.632355,147.886658 242.263123,145.425659 243.264786,142.559082 
	C243.298767,142.028915 243.332748,141.498734 243.738892,140.284088 
	C243.796158,139.514420 243.853424,138.744736 244.262970,137.285904 
	C244.440277,131.209290 244.617599,125.132675 244.732437,118.307793 
	C243.021164,117.452751 240.247345,115.498077 239.789627,115.940346 
	C238.144943,117.529572 237.282669,119.928528 235.767700,122.730064 
M146.752121,145.756897 
	C142.904312,148.460266 140.423126,151.814484 141.374039,157.508636 
	C142.087051,158.846710 142.800064,160.184784 143.900314,162.133652 
	C148.424957,166.987488 153.978943,166.034821 158.882370,163.711380 
	C163.219543,161.656235 162.830948,156.662567 162.005219,152.734344 
	C161.461670,150.148605 159.157318,147.932999 157.178345,145.025925 
	C153.778717,142.814331 150.524841,143.077454 146.752121,145.756897 
M189.311035,104.023163 
	C184.564209,105.710670 181.612061,108.866547 180.786865,114.575806 
	C181.475616,116.828758 182.164383,119.081703 182.912308,122.068428 
	C186.949509,125.978722 192.504349,127.208298 196.508240,125.180855 
	C203.817581,121.479660 206.395782,111.214943 197.069443,105.202515 
	C194.722687,104.829842 192.375916,104.457169 189.311035,104.023163 
z"/>
<path fill="#EC652E" opacity="1.000000" stroke="none" 
	d="
M175.617950,42.492203 
	C173.873260,43.023685 171.831314,43.367134 169.387253,43.648544 
	C169.514938,43.078541 170.044754,42.570580 170.850616,41.968483 
	C172.524689,42.017624 173.922714,42.160896 175.617950,42.492203 
z"/>
<path fill="#EC6128" opacity="1.000000" stroke="none" 
	d="
M87.689377,76.028328 
	C88.256454,76.185280 88.491661,76.396255 88.850800,76.819595 
	C88.559425,77.768349 88.120430,78.531166 87.681427,79.293976 
	C87.061386,78.834717 86.441338,78.375450 85.821289,77.916191 
	C86.341263,77.296104 86.861229,76.676025 87.689377,76.028328 
z"/>
<path fill="#EC652E" opacity="1.000000" stroke="none" 
	d="
M163.327911,44.196350 
	C162.381531,44.707596 161.044022,45.169098 159.346710,45.608765 
	C160.303543,45.106823 161.620148,44.626713 163.327911,44.196350 
z"/>
<path fill="#F08154" opacity="1.000000" stroke="none" 
	d="
M102.019867,208.338364 
	C102.203377,208.940872 102.379044,209.930725 102.290550,210.984680 
	C102.021599,210.274429 102.016808,209.500061 102.019867,208.338364 
z"/>
<path fill="#EC652E" opacity="1.000000" stroke="none" 
	d="
M154.742615,46.670853 
	C154.464066,47.062138 154.000137,47.340782 153.260574,47.604424 
	C153.509033,47.245686 154.033127,46.901951 154.742615,46.670853 
z"/>
<path fill="#EC652E" opacity="1.000000" stroke="none" 
	d="
M138.338593,53.205959 
	C137.961670,53.600327 137.276566,53.989483 136.285980,54.353867 
	C136.663803,53.952976 137.347122,53.576862 138.338593,53.205959 
z"/>
<path fill="#EC642D" opacity="1.000000" stroke="none" 
	d="
M92.745163,58.194832 
	C92.840805,57.989250 93.023689,57.879368 93.206573,57.769485 
	C93.081848,57.943165 92.957123,58.116848 92.745163,58.194832 
z"/>
<path fill="#EA5113" opacity="1.000000" stroke="none" 
	d="
M146.927917,230.282471 
	C154.342194,230.231277 161.756470,230.180084 169.882294,230.395889 
	C171.373764,230.810547 172.153671,230.958191 172.933594,231.105835 
	C172.982086,231.843292 173.030594,232.580765 173.128021,233.685394 
	C163.330612,234.188416 153.484283,234.324280 143.422241,233.964020 
	C143.484467,232.661682 143.762390,231.855469 144.346375,231.039963 
	C145.410934,230.781265 146.169434,230.531876 146.927917,230.282471 
z"/>
<path fill="#EE7543" opacity="1.000000" stroke="none" 
	d="
M265.073120,133.842438 
	C264.091095,124.633194 263.368652,115.165421 262.663757,105.296600 
	C263.606018,107.928070 265.148315,110.924599 265.327484,114.000549 
	C265.706512,120.506355 265.373596,127.053650 265.073120,133.842438 
z"/>
<path fill="#EB5C22" opacity="1.000000" stroke="none" 
	d="
M246.020905,66.006409 
	C244.460327,69.753021 243.330688,67.145576 241.963989,65.637619 
	C242.536377,63.978683 243.216187,62.619160 244.509888,60.031975 
	C245.195404,62.842945 245.543518,64.270386 246.020905,66.006409 
z"/>
<path fill="#EC652E" opacity="1.000000" stroke="none" 
	d="
M216.887665,48.594833 
	C213.218307,47.688282 209.404816,46.466755 205.324921,45.005920 
	C205.222656,44.530693 205.422409,44.330257 205.835052,44.045258 
	C209.589386,45.376755 213.166473,46.828304 216.887665,48.594833 
z"/>
<path fill="#EB5C22" opacity="1.000000" stroke="none" 
	d="
M229.931198,55.997978 
	C228.629028,55.516182 227.291718,54.636784 225.826691,53.432610 
	C227.098007,53.938686 228.497040,54.769535 229.931198,55.997978 
z"/>
<path fill="#EC6128" opacity="1.000000" stroke="none" 
	d="
M173.217377,230.999115 
	C172.153671,230.958191 171.373764,230.810547 170.349365,230.489227 
	C171.492523,229.900467 172.880188,229.485352 174.637527,229.109314 
	C174.505203,229.729706 174.003174,230.311050 173.217377,230.999115 
z"/>
<path fill="#EE7543" opacity="1.000000" stroke="none" 
	d="
M260.920410,59.241386 
	C259.644501,59.556416 258.206787,59.603428 256.342102,59.579239 
	C257.529633,59.329815 259.144073,59.151592 260.920410,59.241386 
z"/>
<path fill="#EC6128" opacity="1.000000" stroke="none" 
	d="
M233.460327,199.005249 
	C234.208069,197.774277 235.313110,196.512634 236.706238,195.118134 
	C235.935410,196.315033 234.876511,197.644806 233.460327,199.005249 
z"/>
<path fill="#EB5C22" opacity="1.000000" stroke="none" 
	d="
M235.846039,60.094448 
	C234.937958,59.965679 234.029297,59.475182 232.938110,58.732124 
	C233.785553,58.897282 234.815491,59.315002 235.846039,60.094448 
z"/>
<path fill="#EC6128" opacity="1.000000" stroke="none" 
	d="
M181.331390,228.376495 
	C182.149887,227.859680 183.230225,227.504791 184.659729,227.169800 
	C183.870316,227.639252 182.731766,228.088837 181.331390,228.376495 
z"/>
<path fill="#EB5C22" opacity="1.000000" stroke="none" 
	d="
M224.777496,52.241276 
	C223.980743,52.351776 223.134262,52.132713 222.057587,51.673050 
	C222.794189,51.592209 223.761002,51.751961 224.777496,52.241276 
z"/>
<path fill="#EC6128" opacity="1.000000" stroke="none" 
	d="
M198.458710,222.548370 
	C198.857559,222.065369 199.607574,221.640213 200.683914,221.213028 
	C200.276794,221.676071 199.543350,222.141144 198.458710,222.548370 
z"/>
<path fill="#EC6128" opacity="1.000000" stroke="none" 
	d="
M257.392426,162.945740 
	C257.353119,162.484177 257.543640,161.960388 257.940338,161.239197 
	C257.971771,161.655701 257.797028,162.269608 257.392426,162.945740 
z"/>
<path fill="#EE7543" opacity="1.000000" stroke="none" 
	d="
M262.949158,142.912704 
	C262.837982,142.323990 262.984955,141.549118 263.345215,140.557953 
	C263.441406,141.136612 263.324341,141.931595 262.949158,142.912704 
z"/>
<path fill="#EE7543" opacity="1.000000" stroke="none" 
	d="
M261.798706,99.146652 
	C261.346649,98.797127 260.936737,98.146080 260.567932,97.198784 
	C261.019653,97.550064 261.430267,98.197594 261.798706,99.146652 
z"/>
<path fill="#EC6128" opacity="1.000000" stroke="none" 
	d="
M259.575256,156.824829 
	C259.503662,156.201904 259.719757,155.392075 260.140564,154.335663 
	C260.184509,154.938690 260.023712,155.788300 259.575256,156.824829 
z"/>
<path fill="#EC6128" opacity="1.000000" stroke="none" 
	d="
M250.625290,176.860962 
	C250.670959,176.276520 250.992569,175.536133 251.569336,174.620193 
	C251.516739,175.198105 251.208969,175.951553 250.625290,176.860962 
z"/>
<path fill="#EC6128" opacity="1.000000" stroke="none" 
	d="
M229.734390,202.754059 
	C229.994904,202.162308 230.629486,201.517563 231.554413,200.695038 
	C231.266006,201.245193 230.687225,201.973145 229.734390,202.754059 
z"/>
<path fill="#EC642D" opacity="1.000000" stroke="none" 
	d="
M110.028542,232.071930 
	C112.527840,229.715775 115.330605,227.601089 117.447517,224.940659 
	C119.940048,221.808228 122.433693,221.709656 125.768661,224.157776 
	C126.040840,224.665497 126.045891,225.156754 126.045883,225.156738 
	C120.575493,229.171280 115.105103,233.185822 109.634720,237.200363 
	C109.392502,236.884842 109.150284,236.569305 108.908066,236.253784 
	C109.375542,235.334946 109.843010,234.416107 110.188988,233.031128 
	C110.067490,232.564987 110.028542,232.071930 110.028542,232.071930 
z"/>
<path fill="#EE7543" opacity="1.000000" stroke="none" 
	d="
M109.627853,232.123810 
	C110.028542,232.071930 110.067490,232.564987 110.074829,232.812683 
	C107.650490,233.693924 105.218803,234.327454 102.176147,234.736298 
	C100.696640,234.020813 99.828087,233.530014 98.959541,233.039200 
	C96.256882,233.337982 92.869019,234.290588 95.751625,229.235031 
	C99.821266,232.418854 103.918594,234.836349 109.627853,232.123810 
z"/>
<path fill="#F08154" opacity="1.000000" stroke="none" 
	d="
M93.564217,221.221832 
	C93.905968,222.474411 93.948318,223.921494 93.876732,225.662933 
	C93.596802,224.443649 93.430809,222.929993 93.564217,221.221832 
z"/>
<path fill="#EC642D" opacity="1.000000" stroke="none" 
	d="
M98.981171,233.365082 
	C99.828087,233.530014 100.696640,234.020813 101.780815,234.716248 
	C101.363800,235.355240 100.731163,235.789581 100.098526,236.223938 
	C99.733284,235.379623 99.368050,234.535294 98.981171,233.365082 
z"/>
<path fill="#EA5113" opacity="1.000000" stroke="none" 
	d="
M126.130173,225.386658 
	C126.045891,225.156754 126.040840,224.665497 126.002029,224.422943 
	C126.673866,224.476135 127.384514,224.771896 128.136230,225.370178 
	C127.523003,225.653976 126.868729,225.635284 126.130173,225.386658 
z"/>
<path fill="#EB5A1F" opacity="1.000000" stroke="none" 
	d="
M75.864319,45.210052 
	C76.290443,45.490524 76.585426,45.971985 76.944916,46.733047 
	C76.584007,46.478779 76.158592,45.944912 75.864319,45.210052 
z"/>
<path fill="#EC6027" opacity="1.000000" stroke="none" 
	d="
M81.111481,67.091278 
	C81.000206,67.005241 81.493355,67.016380 81.739548,67.024261 
	C81.985741,67.032135 81.623253,67.227608 81.623253,67.227608 
	C81.623253,67.227608 81.222763,67.177315 81.111481,67.091278 
z"/>
<path fill="#EA5518" opacity="1.000000" stroke="none" 
	d="
M69.371384,37.954277 
	C69.073845,37.233738 69.073380,36.492180 69.101746,35.380638 
	C69.847244,35.537022 70.563896,36.063393 71.280556,36.589764 
	C70.743187,37.037594 70.205818,37.485428 69.371384,37.954277 
z"/>
<path fill="#EC652E" opacity="1.000000" stroke="none" 
	d="
M191.856476,42.229401 
	C188.649597,42.492367 185.238220,42.454769 181.372559,42.309982 
	C184.496170,42.111477 188.074066,42.020157 191.856476,42.229401 
z"/>
<path fill="#EC652E" opacity="1.000000" stroke="none" 
	d="
M197.953476,43.296349 
	C197.495514,43.417385 196.959503,43.288639 196.239563,42.944767 
	C196.160568,42.460251 196.329712,42.240234 196.731018,41.940971 
	C197.224411,42.223751 197.549911,42.635155 197.953476,43.296349 
z"/>
<path fill="#EB5A1F" opacity="1.000000" stroke="none" 
	d="
M144.040314,231.049255 
	C143.762390,231.855469 143.484467,232.661682 143.058685,233.756256 
	C141.475769,233.831589 140.040695,233.618591 138.303116,233.204559 
	C139.439987,232.351196 140.879379,231.698868 142.924637,231.032104 
	C143.700424,231.028198 143.870377,231.038727 144.040314,231.049255 
z"/>
<path fill="#EC6128" opacity="1.000000" stroke="none" 
	d="
M144.346375,231.039963 
	C143.870377,231.038727 143.700424,231.028198 143.275497,231.008850 
	C143.004395,230.576294 142.988281,230.152542 142.979874,229.410858 
	C144.117004,229.343994 145.246460,229.595078 146.651917,230.064331 
	C146.169434,230.531876 145.410934,230.781265 144.346375,231.039963 
z"/>
<path fill="#EB5E24" opacity="1.000000" stroke="none" 
	d="
M193.994781,201.668884 
	C191.548386,202.744110 189.102005,203.819351 186.111786,204.739456 
	C185.041656,204.903320 184.515366,205.222305 183.989075,205.541290 
	C183.411209,205.849472 182.833359,206.157654 181.558762,206.447876 
	C178.856995,207.055420 176.851974,207.680923 174.846954,208.306427 
	C173.811966,208.462479 172.776993,208.618515 171.054138,208.606064 
	C168.529892,208.764893 166.693512,209.092224 164.857117,209.419571 
	C159.646347,209.320099 154.108383,211.634720 149.460876,206.658569 
	C149.331528,205.327423 149.208405,204.671310 149.085297,204.015182 
	C149.107285,200.064102 151.894089,200.760056 154.374435,200.818085 
	C171.602905,201.221161 187.406677,196.462128 201.460678,186.677399 
	C212.650787,178.886597 221.787903,168.897842 227.864563,156.592239 
	C231.048340,150.144928 234.225891,143.473343 234.362610,135.435623 
	C234.865067,134.315308 234.998001,133.670914 235.130936,133.026535 
	C235.139511,132.590057 235.148102,132.153595 235.544266,131.273575 
	C236.287491,129.886841 236.643127,128.943649 237.331696,127.832283 
	C238.409088,125.073235 239.153580,122.482361 239.953125,119.699829 
	C241.261841,119.776184 242.567505,119.852356 243.900269,120.382416 
	C243.921814,126.549232 243.916260,132.262146 243.910706,137.975067 
	C243.853424,138.744736 243.796158,139.514420 243.360870,140.723816 
	C242.953201,141.763916 242.923538,142.364288 242.893890,142.964661 
	C242.263123,145.425659 241.632355,147.886658 240.562988,150.748016 
	C240.087158,151.766983 240.049927,152.385574 240.012695,153.004166 
	C239.087418,155.141479 238.162155,157.278793 236.716248,159.882416 
	C235.915482,161.181259 235.635330,162.013794 235.355164,162.846344 
	C230.586075,173.573334 222.774857,181.847229 213.979904,189.321609 
	C212.463303,190.610489 210.882095,191.823364 208.666077,193.172943 
	C207.341934,193.871399 206.682480,194.468277 206.023010,195.065140 
	C203.183151,196.817688 200.343292,198.570236 196.836060,200.324371 
	C195.444046,200.773590 194.719421,201.221237 193.994781,201.668884 
M218.512390,175.984436 
	C209.109192,183.529465 199.706009,191.074509 190.827606,198.198456 
	C204.906082,198.132629 238.217407,163.596100 235.102402,151.719696 
	C229.898499,159.402344 224.454025,167.440170 218.512390,175.984436 
z"/>
<path fill="#EB5C22" opacity="1.000000" stroke="none" 
	d="
M181.119644,114.034920 
	C181.612061,108.866547 184.564209,105.710670 189.972137,104.266907 
	C192.903061,104.944878 195.172867,105.379097 197.442688,105.813309 
	C206.395782,111.214943 203.817581,121.479660 196.508240,125.180855 
	C192.504349,127.208298 186.949509,125.978722 182.903976,121.307152 
	C182.303650,118.375557 181.711639,116.205238 181.119644,114.034920 
M198.961197,116.193672 
	C199.984955,110.726273 196.247467,108.507202 192.123947,107.628059 
	C190.399765,107.260475 187.391541,109.041260 186.223404,110.719627 
	C183.511993,114.615341 184.882599,120.323830 188.288269,122.061150 
	C192.181259,124.047050 196.580002,121.943260 198.961197,116.193672 
z"/>
<path fill="#EA5518" opacity="1.000000" stroke="none" 
	d="
M157.641418,145.551666 
	C159.157318,147.932999 161.461670,150.148605 162.005219,152.734344 
	C162.830948,156.662567 163.219543,161.656235 158.882370,163.711380 
	C153.978943,166.034821 148.424957,166.987488 143.777466,161.484970 
	C142.926300,159.507111 142.197952,158.177933 141.469620,156.848755 
	C140.423126,151.814484 142.904312,148.460266 147.523010,145.781876 
	C149.204102,145.863327 150.114288,145.919815 150.892578,146.291870 
	C149.855881,147.305588 148.982925,148.050339 148.040665,148.693573 
	C144.533875,151.087494 144.332535,154.580887 145.450836,158.047241 
	C146.712265,161.957230 150.361374,162.746063 153.654205,161.804428 
	C155.970856,161.141953 158.847382,159.167816 159.612732,157.092850 
	C160.855515,153.723419 159.701996,150.207993 155.976685,148.238235 
	C154.872238,147.654251 153.950943,146.723923 153.417969,145.944550 
	C155.140610,145.808426 156.391022,145.680038 157.641418,145.551666 
z"/>
<path fill="#EA5518" opacity="1.000000" stroke="none" 
	d="
M243.873154,119.928528 
	C242.567505,119.852356 241.261841,119.776184 239.953125,119.699829 
	C239.153580,122.482361 238.409088,125.073235 237.316391,127.439514 
	C236.687012,125.483772 236.405838,123.752617 236.124664,122.021454 
	C237.282669,119.928528 238.144943,117.529572 239.789627,115.940346 
	C240.247345,115.498077 243.021164,117.452751 244.582947,118.795776 
	C244.222931,119.478020 244.036148,119.692940 243.873154,119.928528 
z"/>
<path fill="#ED6630" opacity="1.000000" stroke="none" 
	d="
M243.900269,120.382416 
	C244.036148,119.692940 244.222931,119.478020 244.614197,119.169907 
	C244.617599,125.132675 244.440277,131.209290 244.086838,137.630493 
	C243.916260,132.262146 243.921814,126.549232 243.900269,120.382416 
z"/>
<path fill="#EE7543" opacity="1.000000" stroke="none" 
	d="
M151.024490,145.976288 
	C150.114288,145.919815 149.204102,145.863327 147.848999,145.704193 
	C150.524841,143.077454 153.778717,142.814331 157.409882,145.288788 
	C156.391022,145.680038 155.140610,145.808426 153.098358,145.942078 
	C151.879181,145.957001 151.451828,145.966644 151.024490,145.976288 
z"/>
<path fill="#F08154" opacity="1.000000" stroke="none" 
	d="
M235.946182,122.375763 
	C236.405838,123.752617 236.687012,125.483772 236.983459,127.607697 
	C236.643127,128.943649 236.287491,129.886841 235.655014,130.963669 
	C235.508011,128.308228 235.637863,125.519142 235.946182,122.375763 
z"/>
<path fill="#ED6A35" opacity="1.000000" stroke="none" 
	d="
M197.256073,105.507919 
	C195.172867,105.379097 192.903061,104.944878 190.331207,104.297577 
	C192.375916,104.457169 194.722687,104.829842 197.256073,105.507919 
z"/>
<path fill="#F0865B" opacity="1.000000" stroke="none" 
	d="
M175.202667,208.391418 
	C176.851974,207.680923 178.856995,207.055420 181.240845,206.536255 
	C179.599243,207.253860 177.578812,207.865143 175.202667,208.391418 
z"/>
<path fill="#ED6A35" opacity="1.000000" stroke="none" 
	d="
M180.953247,114.305359 
	C181.711639,116.205238 182.303650,118.375557 182.874390,120.940262 
	C182.164383,119.081703 181.475616,116.828758 180.953247,114.305359 
z"/>
<path fill="#F0865B" opacity="1.000000" stroke="none" 
	d="
M165.241089,209.534302 
	C166.693512,209.092224 168.529892,208.764893 170.659363,208.611771 
	C169.176651,209.073669 167.400848,209.361359 165.241089,209.534302 
z"/>
<path fill="#F0865B" opacity="1.000000" stroke="none" 
	d="
M141.421829,157.178696 
	C142.197952,158.177933 142.926300,159.507111 143.583847,161.179565 
	C142.800064,160.184784 142.087051,158.846710 141.421829,157.178696 
z"/>
<path fill="#F0865B" opacity="1.000000" stroke="none" 
	d="
M148.926102,204.196579 
	C149.208405,204.671310 149.331528,205.327423 149.338257,206.305847 
	C149.070190,205.878098 148.918549,205.128036 148.926102,204.196579 
z"/>
<path fill="#F08154" opacity="1.000000" stroke="none" 
	d="
M234.947296,133.241028 
	C234.998001,133.670914 234.865067,134.315308 234.497253,135.017471 
	C234.429474,134.535339 234.596573,133.995422 234.947296,133.241028 
z"/>
<path fill="#ED6630" opacity="1.000000" stroke="none" 
	d="
M243.079346,142.761871 
	C242.923538,142.364288 242.953201,141.763916 243.174805,141.066055 
	C243.332748,141.498734 243.298767,142.028915 243.079346,142.761871 
z"/>
<path fill="#ED6630" opacity="1.000000" stroke="none" 
	d="
M240.188660,152.792206 
	C240.049927,152.385574 240.087158,151.766983 240.332611,151.060516 
	C240.482101,151.508514 240.423340,152.044388 240.188660,152.792206 
z"/>
<path fill="#EC6027" opacity="1.000000" stroke="none" 
	d="
M235.605347,162.630524 
	C235.635330,162.013794 235.915482,161.181259 236.491547,160.174194 
	C236.476791,160.804672 236.166153,161.609680 235.605347,162.630524 
z"/>
<path fill="#EC6027" opacity="1.000000" stroke="none" 
	d="
M206.346695,194.982452 
	C206.682480,194.468277 207.341934,193.871399 208.359314,193.244064 
	C208.034958,193.775665 207.352661,194.337708 206.346695,194.982452 
z"/>
<path fill="#EC6027" opacity="1.000000" stroke="none" 
	d="
M194.315033,201.651764 
	C194.719421,201.221237 195.444046,200.773590 196.514740,200.359100 
	C196.118973,200.806381 195.377121,201.220520 194.315033,201.651764 
z"/>
<path fill="#EC6027" opacity="1.000000" stroke="none" 
	d="
M184.257507,205.548950 
	C184.515366,205.222305 185.041656,204.903320 185.748306,204.699646 
	C185.461090,205.062180 184.993515,205.309387 184.257507,205.548950 
z"/>
<path fill="#EC6027" opacity="1.000000" stroke="none" 
	d="
M218.760971,175.731201 
	C224.454025,167.440170 229.898499,159.402344 235.102402,151.719696 
	C238.217407,163.596100 204.906082,198.132629 190.827606,198.198456 
	C199.706009,191.074509 209.109192,183.529465 218.760971,175.731201 
z"/>
<path fill="#EC632B" opacity="1.000000" stroke="none" 
	d="
M198.923737,116.593033 
	C196.580002,121.943260 192.181259,124.047050 188.288269,122.061150 
	C184.882599,120.323830 183.511993,114.615341 186.223404,110.719627 
	C187.391541,109.041260 190.399765,107.260475 192.123947,107.628059 
	C196.247467,108.507202 199.984955,110.726273 198.923737,116.593033 
z"/>
<path fill="#EC632B" opacity="1.000000" stroke="none" 
	d="
M150.892578,146.291870 
	C151.451828,145.966644 151.879181,145.957001 152.626129,145.949829 
	C153.950943,146.723923 154.872238,147.654251 155.976685,148.238235 
	C159.701996,150.207993 160.855515,153.723419 159.612732,157.092850 
	C158.847382,159.167816 155.970856,161.141953 153.654205,161.804428 
	C150.361374,162.746063 146.712265,161.957230 145.450836,158.047241 
	C144.332535,154.580887 144.533875,151.087494 148.040665,148.693573 
	C148.982925,148.050339 149.855881,147.305588 150.892578,146.291870 
z"/>
</svg>